<svg xmlns="http://www.w3.org/2000/svg" xmlns:xlink="http://www.w3.org/1999/xlink" id="Layer_1" width="1200" height="1200" x="0" y="0" enable-background="new 0 0 1200 1200" version="1.1" viewBox="0 0 1200 1200" xml:space="preserve"><switch><g><g id="illustration_1_"><path fill="#60504B" d="M647.9,923.2V970c0,48.8,55.399,50.3,55.399,4.5v-51.8L647.9,923.2z"/><path fill="#60504B" d="M544.6,923.2V970c0,48.8,55.4,50.3,55.4,4.5v-51.8L544.6,923.2z"/><path fill="#998C11" d="M513,541c7.5,57,6.9,148.9,6.9,228.2c0,55.8,0,110,0,155.8c56.6,0,51.8,0,92.699,0 c0-46.8,0-101.4,0-154.5c0-75.9,0-148.8,0-191.6c5.9,0,20.5,0,25.9,0c0,41.3,0,115.8,0,191.6c0,54.9,0,110.4,0,154.5 c45,0,35.6,0,92.7,0c0-43,0-97.5,0-154.5c0-79.5,1.234-167.003,5.8-229.5H513z"/><g><circle id="jawMid_2_" cx="625.5" cy="284.1" r=".8"/><circle id="rightJaw7_2_" cx="614.6" cy="282.1" r=".8"/><circle id="leftJaw7_2_" cx="636.4" cy="282.1" r=".8"/><circle id="rightJaw3_2_" cx="580.3" cy="226.6" r=".8"/><circle id="rightJaw2_2_" cx="580.3" cy="217.1" r=".8"/><circle id="leftJaw3_2_" cx="668.5" cy="227" r=".8"/><circle id="leftJaw2_2_" cx="668.5" cy="217.4" r=".8"/><circle id="topMid_2_" cx="624.7" cy="166" r=".8"/><circle id="leftTop0_2_" cx="642.4" cy="168.5" r=".8"/><circle id="rightTop0_2_" cx="606.8" cy="168.5" r=".8"/></g><path fill="#B5613C" d="M410.4,322.3l3,56.8c58.899,0.3,93.5-2.3,119.3,17.7l46.8-88.117C518.9,290.264,466.4,318.9,410.4,322.3z"/><path fill="#B5613C" d="M667,309.833l46.6,88.967c27-16.2,67.7-16.3,126.601-16.7v-56.8C784.2,321.9,741.4,295.148,667,309.833z"/><path fill="#A15542" d="M415.6,328.9c-47.699,2.7-123.1,8.9-160.2,14.2c-37.1,5.3-40.1,40.1,5.3,39.5 c45.399-0.6,95.2-3.5,159.7-12.1L415.6,328.9z"/><path fill="#A15542" d="M834.3,373.5c64.5,8.6,113.3,11.5,158.7,12.1s42.4-34.2,5.3-39.5c-37.1-5.3-114.5-11.5-162.2-14.2 L834.3,373.5z"/><path fill="#441F07" d="M235.542,355.888c-0.3,0.028-0.542,0.114-0.542,0.2c0,0.071-0.129,0.128-0.286,0.128 c-0.157,0-0.285,0.1-0.285,0.214c0,0.128-0.129,0.214-0.357,0.214c-0.2,0-0.357,0.058-0.357,0.143 c0,0.071-0.128,0.143-0.286,0.143s-0.286,0.057-0.286,0.143c0,0.071-0.129,0.143-0.3,0.143c-0.314,0-0.7,0.314-0.7,0.557 c0,0.086-0.186,0.157-0.414,0.157c-0.243,0-0.472,0.057-0.514,0.143c-0.043,0.071-0.214,0.143-0.372,0.143 c-0.157,0-0.271,0.1-0.271,0.229s-0.157,0.386-0.357,0.571c-0.2,0.186-0.357,0.429-0.357,0.557c0,0.114-0.1,0.214-0.214,0.214 c-0.271,0-1.357,1.1-1.357,1.371c0,0.114-0.057,0.2-0.143,0.2c-0.071,0-0.143,0.129-0.143,0.3c0,0.3-0.314,0.7-0.542,0.7 c-0.329,0-0.443,1.386-0.143,1.685c0.1,0.1,0.415,0.172,0.714,0.172c0.514,0,0.543-0.028,0.543-0.429 c0-0.243,0.071-0.429,0.143-0.429c0.085,0,0.143-0.071,0.143-0.157c0-0.2,0.357-0.557,0.557-0.557 c0.086,0,0.157-0.128,0.157-0.286s0.071-0.286,0.143-0.286c0.086,0,0.143-0.071,0.143-0.143c0-0.2,0.943-1.143,1.143-1.143 c0.071,0,0.143-0.072,0.143-0.157c0-0.2,0.371-0.558,0.571-0.558c0.1,0,0.143-0.114,0.1-0.285c-0.057-0.229,0-0.286,0.271-0.286 c0.186,0,0.343-0.071,0.343-0.143c0-0.085,0.129-0.143,0.286-0.143c0.157,0,0.286-0.072,0.286-0.157 c0-0.257,0.457-0.543,0.9-0.557c0.214,0,0.386-0.071,0.386-0.143c0-0.085,0.128-0.143,0.3-0.143c0.314,0,0.7-0.314,0.7-0.557 c0-0.086,0.229-0.157,0.5-0.157c0.271,0,0.5-0.072,0.5-0.143c0-0.086,0.2-0.143,0.429-0.143c0.243,0,0.429-0.071,0.429-0.143 c0-0.086,0.542-0.143,1.356-0.143h1.357v-0.571v-0.571l-1.885,0.029C236.928,355.831,235.828,355.859,235.542,355.888z"/><path fill="#441F07" d="M237.143,362.358c-0.129,0.186-0.372,0.286-0.671,0.286c-0.257,0-0.472,0.057-0.472,0.143 c0,0.072-0.229,0.143-0.5,0.143s-0.5,0.072-0.5,0.157c0,0.229-0.372,0.557-0.629,0.557c-0.128,0-0.229,0.057-0.229,0.143 c0,0.071-0.228,0.143-0.5,0.143s-0.5,0.057-0.5,0.143c0,0.071-0.157,0.143-0.357,0.143c-0.2,0-0.357,0.071-0.357,0.143 c0,0.243-0.671,0.857-0.928,0.857c-0.229,0-0.643,0.328-0.643,0.5c0,0.157-0.4,0.5-0.571,0.5c-0.1,0-0.143,0.114-0.1,0.286 c0.042,0.186,0,0.286-0.143,0.286c-0.114,0-0.157,0.071-0.114,0.143c0.042,0.085-0.015,0.186-0.129,0.229 c-0.128,0.042-0.229,0.214-0.229,0.357c0,0.143-0.057,0.271-0.143,0.271c-0.072,0-0.143,0.129-0.143,0.3 c0,0.314-0.314,0.7-0.557,0.7c-0.085,0-0.157,0.286-0.157,0.643c0,0.471,0.057,0.643,0.214,0.643 c0.114,0,0.214,0.057,0.214,0.143c0,0.071,0.257,0.143,0.571,0.143c0.557,0,0.571-0.014,0.571-0.5c0-0.371,0.057-0.5,0.229-0.5 c0.157,0,0.214-0.085,0.157-0.286c-0.043-0.186,0-0.286,0.143-0.286c0.114,0,0.157-0.071,0.114-0.143 c-0.042-0.086,0.015-0.143,0.128-0.143c0.129,0,0.229-0.128,0.229-0.286c0-0.314,0.585-1,0.856-1 c0.086,0,0.129-0.057,0.086-0.114c-0.1-0.157,0.429-0.6,0.7-0.6c0.114,0,0.214-0.071,0.214-0.143c0-0.085,0.1-0.143,0.229-0.143 c0.114,0,0.171-0.071,0.128-0.143c-0.042-0.085,0.015-0.143,0.129-0.143c0.128,0,0.229-0.1,0.229-0.214s0.128-0.214,0.286-0.214 s0.286-0.071,0.286-0.143c0-0.086,0.229-0.143,0.5-0.143c0.271,0,0.5-0.072,0.5-0.143c0-0.086,0.128-0.143,0.285-0.143 c0.157,0,0.286-0.071,0.286-0.143c0-0.086,0.1-0.143,0.214-0.143c0.114,0,0.214-0.1,0.214-0.214c0-0.143,0.143-0.214,0.415-0.214 c0.243,0,0.471-0.072,0.514-0.143c0.042-0.085,0.257-0.143,0.471-0.143c0.229,0,0.486-0.114,0.6-0.286 c0.114-0.157,0.286-0.286,0.386-0.286c0.128,0,0.186-0.214,0.186-0.643v-0.643h-0.757 C237.514,362.072,237.299,362.129,237.143,362.358z"/><path fill="#441F07" d="M240.616,366.376c0,0.206-0.417,0.573-0.651,0.573c-0.1,0-0.184,0.132-0.184,0.293 s-0.066,0.293-0.167,0.293c-0.083,0-0.167,0.132-0.167,0.294c0,0.323-0.684,1.027-1.001,1.027c-0.083,0-0.167,0.162-0.167,0.367 s-0.066,0.367-0.167,0.367c-0.083,0-0.167,0.133-0.167,0.294c0,0.22-0.117,0.294-0.434,0.294c-0.4,0-0.433,0.044-0.367,0.514 c0.05,0.352,0,0.514-0.15,0.514c-0.117,0-0.217,0.147-0.217,0.337c0,0.177-0.15,0.426-0.333,0.544 c-0.184,0.117-0.333,0.293-0.333,0.411c0,0.235-0.4,0.617-0.651,0.617c-0.1,0-0.184,0.22-0.184,0.484 c0,0.308-0.117,0.558-0.333,0.69c-0.183,0.117-0.333,0.293-0.333,0.396c0,0.104-0.117,0.191-0.25,0.191 c-0.183,0-0.25,0.176-0.25,0.646c0,0.719,0.167,0.822,1.401,0.822c0.601,0,0.634-0.015,0.551-0.396 c-0.083-0.382,0.184-0.778,0.533-0.778c0.101,0,0.184-0.161,0.184-0.366c0-0.206,0.083-0.368,0.167-0.368 c0.1,0,0.167-0.103,0.167-0.235c0-0.264,0.384-0.646,0.667-0.646c0.1,0,0.133-0.073,0.083-0.146 c-0.05-0.088,0.017-0.191,0.15-0.235c0.151-0.044,0.267-0.22,0.267-0.368c0-0.146,0.084-0.278,0.167-0.278 c0.101,0,0.167-0.206,0.167-0.44c0-0.441,0.618-1.175,1.001-1.175c0.083,0,0.167-0.132,0.167-0.293 c0-0.323,0.684-1.028,1.001-1.028c0.083,0,0.167-0.146,0.167-0.337c0-0.177,0.15-0.426,0.333-0.544 c0.183-0.117,0.333-0.323,0.333-0.47c0-0.161,0.117-0.265,0.334-0.265c0.3,0,0.333-0.102,0.333-0.88v-0.881h-0.834 C240.966,366.214,240.616,366.288,240.616,366.376z"/><path fill="#441F07" d="M1009.099,356.742v0.769h1.711c0.961,0,1.787,0.077,1.845,0.192c0.058,0.096,0.365,0.192,0.692,0.192 c0.365,0,0.558,0.096,0.558,0.289c0,0.192,0.191,0.289,0.634,0.289c0.404,0,0.73,0.134,0.903,0.384 c0.154,0.211,0.48,0.384,0.712,0.384c0.249,0,0.441,0.077,0.441,0.192c0,0.096,0.25,0.192,0.558,0.192 c0.346,0,0.673,0.173,0.903,0.481c0.192,0.269,0.519,0.48,0.692,0.48c0.192,0,0.346,0.077,0.346,0.192 c0,0.096,0.23,0.192,0.5,0.192c0.403,0,0.461,0.077,0.365,0.384c-0.097,0.269-0.039,0.385,0.173,0.385 c0.173,0,0.308,0.115,0.308,0.25c0,0.135,0.23,0.404,0.499,0.615c0.846,0.634,1.23,1,1.23,1.172c0,0.096,0.173,0.308,0.385,0.461 c0.211,0.154,0.384,0.384,0.384,0.519c0,0.154,0.308,0.558,0.673,0.903c0.48,0.48,0.673,0.827,0.673,1.249 c0,0.577,0.02,0.596,0.884,0.596c0.481,0,0.827-0.077,0.75-0.173c-0.058-0.096-0.019-0.231,0.097-0.308 c0.249-0.154,0.249-1.826-0.02-1.826c-0.096,0-0.135-0.096-0.077-0.192c0.058-0.116,0.02-0.192-0.096-0.192 c-0.346,0-0.77-0.519-0.77-0.942c0-0.231-0.076-0.404-0.191-0.404c-0.097,0-0.192-0.173-0.192-0.384s-0.058-0.384-0.135-0.384 c-0.25,0-1.211-0.903-1.211-1.134c0-0.115-0.173-0.211-0.385-0.211c-0.249,0-0.384-0.135-0.384-0.384 c0-0.211-0.097-0.384-0.212-0.384c-0.326,0-0.749-0.519-0.749-0.942c0-0.269-0.115-0.404-0.385-0.404 c-0.211,0-0.385-0.096-0.385-0.192c0-0.115-0.269-0.192-0.596-0.192c-0.576,0-1.134-0.365-1.134-0.75 c0-0.116-0.212-0.212-0.48-0.212c-0.27,0-0.48-0.096-0.48-0.192c0-0.116-0.173-0.192-0.385-0.192 c-0.211,0-0.384-0.096-0.384-0.192c0-0.116-0.212-0.192-0.481-0.192c-0.269,0-0.48-0.096-0.48-0.192 c0-0.115-0.173-0.192-0.384-0.192c-0.212,0-0.385-0.115-0.385-0.269c0-0.327-1.364-0.5-4.268-0.5h-2.268V356.742z"/><path fill="#441F07" d="M1010.095,365.684c0,0.519,0.096,0.865,0.211,0.865c0.135,0,0.365,0.173,0.539,0.365 c0.172,0.211,0.576,0.404,0.884,0.442c0.326,0.039,0.558,0.154,0.538,0.288c-0.039,0.173,0.173,0.25,0.615,0.25 c0.365,0,0.673,0.077,0.673,0.192c0,0.097,0.134,0.192,0.288,0.192c0.153,0,0.288,0.077,0.288,0.192 c0,0.096,0.173,0.192,0.385,0.192c0.211,0,0.384,0.077,0.384,0.192c0,0.096,0.308,0.192,0.673,0.192 c0.462,0,0.673,0.096,0.673,0.289c0,0.153,0.173,0.288,0.385,0.288c0.211,0,0.385,0.077,0.385,0.192 c0,0.096,0.115,0.192,0.249,0.192c0.135,0,0.365,0.173,0.52,0.384c0.153,0.212,0.423,0.385,0.615,0.385s0.346,0.135,0.346,0.288 c0,0.154,0.135,0.289,0.308,0.289c0.153,0,0.23,0.077,0.173,0.192c-0.058,0.096-0.02,0.192,0.096,0.192 c0.365,0,1.153,0.923,1.153,1.346c0,0.211,0.097,0.384,0.212,0.384c0.346,0,0.749,0.538,0.634,0.846 c-0.076,0.192,0,0.346,0.192,0.423s0.308,0.346,0.308,0.672c0,0.52,0.058,0.558,0.769,0.558c0.423,0,0.77-0.096,0.77-0.192 c0-0.115,0.134-0.192,0.288-0.192c0.211,0,0.288-0.231,0.288-0.865c0-0.48-0.096-0.865-0.211-0.865 c-0.327,0-0.75-0.519-0.75-0.942c0-0.23-0.077-0.404-0.192-0.404c-0.096,0-0.192-0.134-0.192-0.307 c0-0.173-0.211-0.48-0.461-0.673c-0.308-0.25-0.423-0.5-0.365-0.75c0.058-0.231,0-0.385-0.115-0.385 c-0.288,0-1.288-0.98-1.211-1.191c0.02-0.077-0.135-0.154-0.365-0.154s-0.653-0.269-0.941-0.577 c-0.289-0.327-0.712-0.577-0.942-0.577s-0.403-0.115-0.403-0.289c0-0.192-0.212-0.288-0.673-0.288 c-0.365,0-0.673-0.096-0.673-0.192c0-0.115-0.153-0.192-0.346-0.192s-0.462-0.173-0.615-0.384c-0.173-0.25-0.5-0.385-0.903-0.385 c-0.442,0-0.635-0.096-0.635-0.288c0-0.192-0.192-0.289-0.634-0.289c-0.404,0-0.73-0.134-0.903-0.384 c-0.212-0.308-0.5-0.385-1.288-0.385h-1.019V365.684z"/><path fill="#441F07" d="M1006.007,369.913c0,0.922,0.038,1.057,0.385,1.057c0.25,0,0.384,0.135,0.384,0.384 c0,0.211,0.097,0.384,0.192,0.384c0.115,0,0.192,0.135,0.192,0.289s0.096,0.289,0.192,0.289c0.115,0,0.192,0.173,0.192,0.384 s0.096,0.384,0.211,0.384c0.327,0,1.134,1,1.134,1.384c0,0.192,0.097,0.346,0.192,0.346c0.442,0,1.153,0.961,1.153,1.538 c0,0.308,0.097,0.577,0.192,0.577c0.115,0,0.192,0.211,0.192,0.48s0.096,0.48,0.192,0.48c0.365,0,1.153,0.923,1.153,1.346 c0,0.211,0.096,0.384,0.191,0.384c0.115,0,0.192,0.154,0.192,0.346c0,0.192,0.212,0.48,0.462,0.615 c0.384,0.192,0.461,0.346,0.365,0.788c-0.097,0.539-0.077,0.558,0.634,0.558c1.423,0,1.614-0.135,1.614-1.076 c0-0.48-0.096-0.846-0.211-0.846c-0.27,0-0.75-0.481-0.75-0.75c0-0.115-0.076-0.211-0.192-0.211c-0.096,0-0.191-0.211-0.191-0.48 c0-0.288-0.212-0.692-0.48-0.942c-0.27-0.25-0.481-0.577-0.481-0.711c0-0.154-0.173-0.404-0.384-0.558 c-0.212-0.154-0.385-0.48-0.385-0.711c0-0.25-0.115-0.442-0.25-0.442c-0.173,0-0.23-0.192-0.173-0.577 c0.077-0.519,0.02-0.577-0.423-0.577c-0.403,0-0.5-0.096-0.5-0.48c0-0.269-0.076-0.48-0.191-0.48 c-0.097,0-0.192-0.135-0.192-0.288c0-0.173-0.308-0.596-0.673-0.942c-0.365-0.365-0.673-0.788-0.673-0.961 c0-0.173-0.077-0.307-0.192-0.307c-0.096,0-0.192-0.211-0.192-0.481c0-0.269-0.115-0.48-0.25-0.48 c-0.134,0-0.365-0.173-0.519-0.384c-0.211-0.288-0.5-0.384-1.191-0.384h-0.923V369.913z"/><path fill="#B55340" d="M968.4,381.4l17-6.8c0,0,6.1,5.5,13,11.2c6.899,5.7-4.7,18.4-15.301,10.6 C972.4,388.6,968.4,381.4,968.4,381.4z"/><path fill="#B55340" d="M280.2,381.4l-17-6.8c0,0-6.1,5.5-13,11.2c-6.9,5.7,4.7,18.4,15.3,10.6 C276.2,388.6,280.2,381.4,280.2,381.4z"/><path fill="#D4804B" d="M504.5,549c13.89-76.5,8.311-143.199,28.91-185.97c12.601-26.217,28-45.214,44.8-57.324 c14.7-10.554,30.5-15.664,46.2-15.442c15.601,0.223,31.3,5.777,45.9,16.442c16.5,12.109,31.8,30.884,44.3,56.324 C735.91,406.134,727.7,470,743.5,549H501.11H504.5z"/><path fill="#FFD88D" d="M644.944,356.811c6.857,3.958,13.021,10.608,19.457,18.31c5.265,6.288,11.892,12.788,16.156,21.44 c3.672,7.464,6.035,16.217,8.515,25.357c2.203,8.087,3.707,16.859,4.655,26.194c0.831,8.152,0.179,15.853-1.255,23.025 c-1.564,7.887-4.576,14.961-8.457,21.391c-4.069,6.729-8.162,13.724-14.267,18.533c-6.072,4.774-13.532,8.362-21.125,10.908 c-7.237,2.425-15.311,3.957-23.484,4.07c-7.552,0.101-15.12-2.967-23.124-5.074c-9.529-2.504-18.555-4.095-25.015-8.859 c-7.4-5.463-11.837-13.415-15.771-21.028c-3.914-7.573-8.068-15.705-9.125-24.555c-1.011-8.381,1.414-17.236,2.452-26.014 c1.017-8.564,2.128-17.237,4.623-25.493c2.587-8.537,5.146-17.077,8.814-24.551c4.166-8.486,9.272-15.958,14.141-22.044 c4.917-6.146,11.46-10.52,18.286-13.574c7.026-3.151,14.688-3.811,22.409-3.429C630.334,351.792,638.053,352.841,644.944,356.811 z"/><line x1="741.4" x2="508.6" y1="564.8" y2="564.8" fill="none"/><ellipse cx="625.867" cy="297.918" fill="#FFF" rx="22" ry="5.251"/><path fill="#F3AF9D" d="M616.2,277.5"/><path fill="#6B372D" d="M616,284.9h20.899c0,0,4.301,10,5.7,13.809c-2.1,1.572-9.1,1.831-15.5,1.799 c-8.2-0.032-15.899-0.762-17.1-2.026L616,284.9z"/><path fill="#893D33" d="M614.6,290.132h19.973c1.745,1.641-17.84,9.812-24.572,8.35L614.6,290.132z"/><g id="girl-face"><path fill="#A15542" d="M697.293,173.274c-0.458,2.302-1.153,4.331-2.177,6.273c-1.061,2.014-1.821,4.313-3.359,5.845 c-1.553,1.547-3.649,2.304-5.551,3.261c-1.883,0.948-3.827,1.64-5.917,1.912c-2.015,0.262-4.08,0.348-6.165-0.11 c-2.086-0.457-3.806-1.667-5.552-2.754c-1.811-1.126-3.396-2.383-4.761-4.042c-1.377-1.676-2.403-3.52-3.236-5.59 c-0.824-2.05-1.547-4.105-1.752-6.396c-0.198-2.21,0.063-4.411,0.521-6.713c0.457-2.301,1.018-4.454,2.041-6.397 c1.062-2.013,2.064-4.158,3.603-5.69c1.553-1.547,3.588-2.448,5.489-3.406c1.882-0.948,3.895-1.348,5.983-1.62 c2.017-0.262,4.099-0.656,6.184-0.2c2.085,0.457,3.828,1.72,5.575,2.806c1.811,1.126,3.429,2.4,4.793,4.061 c1.377,1.675,2.715,3.404,3.549,5.474c0.824,2.05,1.602,4.247,1.808,6.538C698.564,168.735,697.75,170.974,697.293,173.274z"/><path fill="#E9AF34" d="M684.783,178.562c-0.494,2.485-1.03,4.871-2.48,6.647c-1.496,1.832-3.624,2.697-5.737,3.484 c-2.05,0.762-4.172,1.402-6.423,0.908c-2.251-0.493-3.924-2.006-5.51-3.565c-1.639-1.608-3.459-3.193-4.134-5.501 c-0.651-2.238-0.572-4.826-0.078-7.311c0.495-2.484,1.637-4.668,3.088-6.444c1.496-1.832,3.467-3.01,5.58-3.798 c2.049-0.762,4.205-1.021,6.456-0.528s4.045,1.737,5.632,3.296c1.638,1.609,3.039,3.428,3.713,5.736 C685.542,173.723,685.278,176.077,684.783,178.562z"/><g><path fill="#A15542" d="M558.159,179.359c0.52,2.263,1.712,4.235,2.787,6.098c1.115,1.93,2.638,3.43,4.215,4.843 c1.593,1.427,3.243,2.759,5.167,3.57c1.906,0.802,3.966,0.846,6.061,0.957c2.021,0.107,4.094,0.415,6.165-0.203 c2.071-0.616,3.737-2.057,5.453-3.277c1.779-1.264,3.352-2.626,4.669-4.388c1.331-1.78,2.304-3.713,3.081-5.847 c0.769-2.111,1.661-4.217,1.805-6.521c0.138-2.223-0.42-4.42-0.939-6.684c-0.52-2.264-1.252-4.294-2.328-6.158 c-1.115-1.93-2.357-3.685-3.935-5.098c-1.593-1.427-3.171-3.084-5.097-3.895c-1.906-0.802-4.072-1.31-6.166-1.421 c-2.021-0.107-4.194,0.303-6.266,0.92c-2.071,0.616-3.81,2.046-5.527,3.266c-1.779,1.265-3.714,2.4-5.032,4.162 c-1.331,1.78-2.316,3.938-3.093,6.07c-0.769,2.111-0.995,4.434-1.139,6.738C557.906,174.714,557.64,177.095,558.159,179.359z"/><path fill="#E9AF34" d="M571.334,183.519c0.561,2.445,1.43,4.673,2.927,6.335c1.545,1.715,3.656,2.438,5.789,3.062 c2.067,0.604,4.24,1.289,6.477,0.624c2.236-0.666,4.194-2.077,5.737-3.757c1.593-1.732,2.605-3.983,3.216-6.341 c0.591-2.285,1-4.799,0.439-7.243c-0.561-2.445-1.779-4.646-3.277-6.309c-1.544-1.716-3.64-2.774-5.772-3.397 c-2.068-0.604-4.22-0.26-6.457,0.407c-2.236,0.666-4.185,1.648-5.729,3.328c-1.593,1.733-2.794,3.812-3.405,6.168 C570.688,178.681,570.773,181.075,571.334,183.519z"/></g><path fill="#A15542" d="M586.752,178.456c1.511-1.614,3.464-2.647,5.105-4.064c1.652-1.425,3.226-2.92,5.004-4.133 c1.776-1.21,3.608-2.284,5.505-3.27c1.88-0.976,3.796-1.841,5.79-2.583c1.956-0.728,3.978-1.183,6.039-1.673 c2.348-0.558,4.642-1.635,7.029-1.897c2.386-0.263,4.805,0.11,7.197,0.144s4.783,0.096,7.151,0.429s4.821,0.38,7.132,1.015 c2.311,0.634,4.479,1.847,6.699,2.785c2.139,0.903,4.053,2.286,6.073,3.447c2.024,1.164,4.242,1.966,6.133,3.366 c1.892,1.399,3.785,2.843,5.53,4.458c1.742,1.613,3.016,3.781,4.598,5.586c1.58,1.803,2.99,3.728,4.396,5.701 c1.404,1.973,3.107,3.698,4.323,5.819c1.218,2.121,2.048,4.483,3.063,6.731c1.015,2.249,1.776,4.59,2.574,6.945 c0.8,2.354,1.63,4.667,2.198,7.106c0.583,2.5,1.003,5.026,1.323,7.6c0.32,2.574,0.999,5.118,1.011,7.713 c0.012,2.607-0.635,5.182-0.981,7.756c-0.347,2.579-0.645,5.157-1.396,7.649c-0.65,2.15-1.769,4.058-2.701,6.069 c-0.936,2.013-1.367,4.361-2.544,6.226c-1.172,1.855-2.872,3.296-4.243,4.997c-1.365,1.694-2.415,3.768-3.938,5.299 c-1.523,1.533-3.627,2.306-5.267,3.667c-1.909,1.584-3.664,3.51-5.747,4.995c-2.028,1.447-4.012,3.083-6.164,4.383 c-2.137,1.292-4.416,2.337-6.633,3.436c-2.238,1.109-4.574,1.928-6.854,2.789c-2.336,0.881-4.684,1.58-7.018,2.147 c-2.141,0.52-4.287,0.531-6.416,0.735c-2.164,0.209-4.283,0.506-6.426,0.417c-2.155-0.09-4.279-0.305-6.401-0.669 c-2.12-0.364-4.132-1.132-6.207-1.742c-2.065-0.607-4.382-0.435-6.395-1.258c-2.002-0.818-3.913-1.966-5.851-2.973 c-1.931-1.003-3.879-2.032-5.737-3.194c-1.894-1.185-3.572-2.921-5.527-4.228c-1.892-1.264-3.908-2.382-5.768-3.786 c-1.845-1.393-3.835-2.617-5.563-4.172c-1.744-1.569-3.102-3.599-4.639-5.359c-1.563-1.791-3.288-3.427-4.545-5.44 c-1.268-2.033-1.911-4.446-2.773-6.734c-0.859-2.281-1.334-4.606-1.748-7.012c-0.414-2.41-1.15-4.767-1.169-7.244 c-0.019-2.453,0-4.962,0.318-7.424c0.316-2.442,1.458-4.723,2.058-7.115c0.6-2.399,0.908-4.879,1.744-7.172 c0.788-2.161,1.794-4.289,2.732-6.496c0.908-2.134,1.875-4.271,2.915-6.395c1.025-2.096,1.587-4.511,2.732-6.549 c1.146-2.042,2.863-3.689,4.12-5.625c1.28-1.966,2.761-3.713,4.146-5.519C584.167,182.28,585.222,180.09,586.752,178.456z"/><circle id="jawMid_1_" cx="625.5" cy="284.1" r=".8" display="none"/><circle id="rightJaw7_1_" cx="614.6" cy="282.1" r=".8" display="none"/><circle id="leftJaw7_1_" cx="636.4" cy="282.1" r=".8" display="none"/><circle id="rightJaw3_1_" cx="580.3" cy="226.6" r=".8" display="none"/><circle id="rightJaw2_1_" cx="580.3" cy="217.1" r=".8" display="none"/><circle id="leftJaw3_1_" cx="668.5" cy="227" r=".8" display="none"/><circle id="leftJaw2_1_" cx="668.5" cy="217.4" r=".8" display="none"/><circle id="topMid_3_" cx="624.7" cy="166" r=".8" display="none"/><circle id="leftTop0_3_" cx="642.4" cy="168.5" r=".8" display="none"/><circle id="rightTop0_3_" cx="606.8" cy="168.5" r=".8" display="none"/></g><g><path fill="#6B372D" d="M578.7,221.9c3.1-6.1,13.1-6.7,21.1-6.1c0.7,2.3,0.7,3.8-0.1,3.7C596.6,219.4,589.5,215.6,578.7,221.9z"/><circle id="rightBrow1_1_" cx="592.5" cy="203.2" r=".8"/><circle id="rightBrow4_1_" cx="615.8" cy="206.2" r=".8"/><circle id="rightBrow3_1_" cx="606" cy="202.2" r=".8"/><circle id="rightBrow0_1_" cx="588.5" cy="206.9" r=".8"/><circle id="rightBrow2_1_" cx="598.7" cy="202.2" r=".8"/></g><g><path fill="#6B372D" d="M666.7,220.8c-7.5-3.4-8.8-2.2-19-1c-0.3-0.8-0.5-1.7-0.101-4c6,0.5,16-2.3,21.101,6.1 C668,221.5,667.4,221.1,666.7,220.8z"/><circle id="leftBrow1_1_" cx="656.2" cy="203.6" r=".8"/><circle id="leftBrow4_1_" cx="632.6" cy="205.7" r=".8"/><circle id="leftBrow3_1_" cx="642.6" cy="202.5" r=".8"/><circle id="leftBrow0_1_" cx="660.2" cy="206.5" r=".8"/><circle id="leftBrow2_1_" cx="649.9" cy="202.1" r=".8"/></g><g><ellipse cx="590.1" cy="247.5" fill="#F2CAB6" rx="7.801" ry="6.2"/><ellipse cx="593" cy="231.6" fill="#2C323A" rx="3.6" ry="5.8"/><circle id="rightEye0_1_" cx="594.7" cy="215.1" r=".8"/><circle id="rightEye1_1_" cx="599.9" cy="211.4" r=".8"/><circle id="rightEye5_1_" cx="599.9" cy="217.4" r=".8"/><circle id="rightEye2_1_" cx="606.2" cy="211.4" r=".8"/><circle id="rightEye3_1_" cx="611.4" cy="215.6" r=".8"/><circle id="rightEye4_1_" cx="606.2" cy="216.6" r=".8"/></g><g><ellipse cx="654.8" cy="231.6" fill="#2C323A" rx="3.601" ry="5.8"/><ellipse cx="659.2" cy="247.5" fill="#F2CAB6" rx="7.8" ry="6.2"/><circle id="leftEye0_1_" cx="654.3" cy="215.1" r=".8"/><circle id="leftEye1_1_" cx="649.1" cy="211.4" r=".8"/><circle id="leftEye5_1_" cx="649.1" cy="217.4" r=".8"/><circle id="leftEye2_1_" cx="642.8" cy="211.4" r=".8"/><circle id="leftEye3_1_" cx="637.6" cy="215.6" r=".8"/><circle id="leftEye4_1_" cx="642.8" cy="216.6" r=".8"/></g><path fill="#E9AF34" d="M631.807,227.311c2.457,1.273,4.673,3.399,6.989,5.86c1.895,2.009,4.275,4.089,5.818,6.846 c1.329,2.378,2.194,5.163,3.102,8.071c0.806,2.573,1.364,5.361,1.726,8.327c0.316,2.59,0.103,5.033-0.392,7.307 c-0.539,2.5-1.597,4.738-2.966,6.77c-1.436,2.126-2.88,4.337-5.047,5.849c-2.155,1.501-4.81,2.622-7.513,3.411 c-2.577,0.752-5.455,1.219-8.372,1.234c-2.695,0.014-5.404-0.979-8.266-1.667c-3.407-0.818-6.633-1.345-8.95-2.874 c-2.654-1.752-4.258-4.288-5.681-6.714c-1.415-2.414-2.918-5.005-3.317-7.817c-0.381-2.663,0.462-5.468,0.812-8.252 c0.342-2.716,0.717-5.467,1.587-8.082c0.902-2.704,1.795-5.408,3.086-7.772c1.466-2.684,3.271-5.043,4.993-6.963 c1.74-1.939,4.064-3.312,6.493-4.265c2.5-0.983,5.233-1.174,7.99-1.034C626.579,225.682,629.337,226.033,631.807,227.311z"/><g><path id="rightMiddleLip_2_" d="M610.8,254.6c0.4,0,0.8,0.4,0.8,0.8s-0.399,0.8-0.8,0.8c-0.399,0-0.8-0.4-0.8-0.8 S610.4,254.6,610.8,254.6z"/><circle id="upperLipBottomMid_1_" cx="624.5" cy="255.1" r=".8"/><circle id="rightUpperLipBottom1_1_" cx="620.6" cy="254.6" r=".8"/><path id="leftMiddleLip_2_" d="M638.2,254.6c0.399,0,0.8,0.4,0.8,0.8s-0.4,0.8-0.8,0.8c-0.4,0-0.8-0.4-0.8-0.8 S637.8,254.6,638.2,254.6z"/><circle id="leftUpperLipBottom1_1_" cx="628.4" cy="254.6" r=".8"/><path fill="#2C323A" stroke="#2C323A" stroke-miterlimit="10" stroke-width="2" d="M611.6,255.4c0,0,7.4-0.2,12.9-0.2 s13.9-0.1,13.9-0.1s-6.101,4-13.9,4C616.6,259.1,611.6,255.4,611.6,255.4z"/><circle id="lowerLipTopMid_2_" cx="624.5" cy="258.1" r=".8"/><circle id="rightLowerLipTop0_2_" cx="620.6" cy="257.4" r=".8"/><circle id="leftLowerLipTop0_2_" cx="628.4" cy="257.4" r=".8"/></g><g><circle id="jawMid_3_" cx="625.5" cy="284.1" r=".8"/><circle id="rightJaw7_3_" cx="614.6" cy="282.1" r=".8"/><circle id="leftJaw7_3_" cx="636.4" cy="282.1" r=".8"/><circle id="rightJaw3_3_" cx="580.3" cy="226.6" r=".8"/><circle id="rightJaw2_3_" cx="580.3" cy="217.1" r=".8"/><circle id="leftJaw3_3_" cx="668.5" cy="227" r=".8"/><circle id="leftJaw2_3_" cx="668.5" cy="217.4" r=".8"/><circle id="topMid_1_" cx="624.7" cy="166" r=".8"/><circle id="leftTop0_1_" cx="642.4" cy="168.5" r=".8"/><circle id="rightTop0_1_" cx="606.8" cy="168.5" r=".8"/></g><g><circle id="nose1_1_" cx="623.7" cy="216.1" r=".8"/><circle id="nose0_1_" cx="623.7" cy="210.3" r=".8"/><circle id="nose3_1_" cx="623.7" cy="228.7" r=".8"/><circle id="rightNose0_1_" cx="613" cy="233.2" r=".8"/><circle id="rightNose1_1_" cx="618.2" cy="233.2" r=".8"/><circle id="nose2_1_" cx="623.7" cy="221.6" r=".8"/><circle id="nose4_1_" cx="623.7" cy="234" r=".8"/><circle id="leftNose0_1_" cx="634.1" cy="233.2" r=".8"/><circle id="leftNose1_1_" cx="629.3" cy="233.2" r=".8"/><path fill="#1C242D" d="M616.952,235.894c1.376-0.762,3.301-1.104,5.308-1.406c1.624-0.245,3.429-0.203,5.342,0.3 c4.087,1.075,6.765,3.448,4.403,6.867c-1.174,1.704-3.76,6.18-6.68,7.793c-2.838,0.722-2.441,0.159-5.299-1.964 c-1.339-0.996-2.578-2.62-3.9-4.606C614.571,240.541,614.771,237.103,616.952,235.894z"/></g></g><g id="skeleton_1_" display="none"><polygon fill="none" stroke="#000" stroke-miterlimit="10" points="518.8 349.5 569.1 565.3 685.5 564.5 731.7 349.5" display="inline"/><polyline fill="none" stroke="#000" stroke-miterlimit="10" points="517.8 349.5 415.1 349.5 251.8 355.8" display="inline"/><polyline fill="none" stroke="#000" stroke-miterlimit="10" points="733.2 349.1 836.4 349.1 999.7 355.5" display="inline"/><polyline fill="none" stroke="#000" stroke-miterlimit="10" points="569.1 565.3 575.5 725.5 575.5 933.5" display="inline"/><polyline fill="none" stroke="#000" stroke-miterlimit="10" points="685.5 564.5 685.5 725.5 685.5 933.5" display="inline"/><polyline fill="none" stroke="#000" stroke-miterlimit="10" points="624.5 170 604.7 172.5 592.2 182 583.6 196.1 581.1 205.4 580.3 217.1 580.3 226.6 581.1 248.3 587.9 268.3 599.5 280.8 609.5 287.5 624.5 290.7 639.3 287.9 649.3 281.2 660.9 268.6 667.7 248.6 668.5 227 668.5 217.4 667.7 205.7 665.2 196.5 657 182 644.4 172.5 624.5 170" display="inline"/><polyline fill="none" stroke="#000" stroke-miterlimit="10" points="588.5 206.9 592.5 203.2 598.7 202.2 606 202.2 615.8 206.2" display="inline"/><polygon fill="none" stroke="#000" stroke-miterlimit="10" points="594.7 215.1 599.9 211.4 606.2 211.4 611.4 215.6 606.2 216.6 599.9 217.4" display="inline"/><polyline fill="none" stroke="#000" stroke-miterlimit="10" points="613 233.2 618.2 233.2 623.7 234 623.7 228.7 623.7 221.6 623.7 216.1 623.7 210.3" display="inline"/><polyline fill="none" stroke="#000" stroke-miterlimit="10" points="660 206.5 656 203.6 649.7 202.1 642.4 202.5 632.4 205.7" display="inline"/><polygon fill="none" stroke="#000" stroke-miterlimit="10" points="654.1 215.1 648.8 211.4 642.5 211.4 637.4 215.6 642.5 216.6 648.8 217.4" display="inline"/><polyline fill="none" stroke="#000" stroke-miterlimit="10" points="634.1 233.2 629.1 233.2 623.7 234" display="inline"/><polygon fill="none" stroke="#000" stroke-miterlimit="10" points="607 255.3 613.9 251.9 620.4 250.8 624.5 251.7 628.7 250.8 635.1 251.9 642 255.3 635.6 261.6 628.5 264.4 624.5 264.9 620.4 264.4 613.4 261.6" display="inline"/><polyline fill="none" stroke="#000" stroke-miterlimit="10" points="607 255.3 610.6 255.6 620.6 254.8 624.5 255.3 628.5 254.8 638.4 255.6 642 255.3" display="inline"/><polyline fill="none" stroke="#000" stroke-miterlimit="10" points="607 255.3 610.6 255.6 620.6 257.7 624.5 258.5 628.5 257.7 638.4 255.6 642 255.3" display="inline"/><circle id="rightShoulder" cx="518.9" cy="349.2" r="8.2" display="inline"/><circle id="rightElbow" cx="415.4" cy="349.3" r="8.2" display="inline"/><circle id="rightWrist" cx="252" cy="355.7" r="8.2" display="inline"/><circle id="rightHip" cx="569.2" cy="565" r="8.2" display="inline"/><circle id="rightKnee" cx="575.6" cy="725.2" r="8.2" display="inline"/><circle id="rightAnkle" cx="575.6" cy="933.2" r="8.2" display="inline"/><circle id="leftElbow" cx="836.2" cy="348.9" r="8.2" display="inline"/><circle id="leftWrist" cx="999.6" cy="355.2" r="8.2" display="inline"/><circle id="leftHip" cx="685.6" cy="564.2" r="8.2" display="inline"/><circle id="leftKnee" cx="685.6" cy="725.2" r="8.2" display="inline"/><circle id="leftAnkle" cx="685.6" cy="933.2" r="8.2" display="inline"/><circle id="rightEye0" cx="594.7" cy="215.1" r=".8" display="inline"/><circle id="rightBrow1" cx="592.5" cy="203.2" r=".8" display="inline"/><circle id="rightBrow4" cx="615.8" cy="206.2" r=".8" display="inline"/><circle id="nose1" cx="623.7" cy="216.1" r=".8" display="inline"/><circle id="rightBrow3" cx="606" cy="202.2" r=".8" display="inline"/><circle id="rightEye1" cx="599.9" cy="211.4" r=".8" display="inline"/><circle id="rightBrow0" cx="588.5" cy="206.9" r=".8" display="inline"/><circle id="rightBrow2" cx="598.7" cy="202.2" r=".8" display="inline"/><circle id="rightEye5" cx="599.9" cy="217.4" r=".8" display="inline"/><circle id="rightEye2" cx="606.2" cy="211.4" r=".8" display="inline"/><circle id="rightEye3" cx="611.4" cy="215.6" r=".8" display="inline"/><circle id="nose0" cx="623.7" cy="210.3" r=".8" display="inline"/><circle id="nose3" cx="623.7" cy="228.7" r=".8" display="inline"/><circle id="rightNose0" cx="613" cy="233.2" r=".8" display="inline"/><circle id="rightMouthCorner" cx="607" cy="255.3" r=".8" display="inline"/><circle id="rightNose1" cx="618.2" cy="233.2" r=".8" display="inline"/><circle id="rightUpperLipTop0" cx="613.9" cy="251.9" r=".8" display="inline"/><circle id="nose2" cx="623.7" cy="221.6" r=".8" display="inline"/><circle id="nose4" cx="623.7" cy="234" r=".8" display="inline"/><circle id="upperLipTopMid" cx="624.5" cy="251.7" r=".8" display="inline"/><circle id="rightUpperLipTop1" cx="620.4" cy="250.8" r=".8" display="inline"/><path id="rightMiddleLip" d="M610.6,254.8c0.4,0,0.801,0.4,0.801,0.8s-0.4,0.8-0.801,0.8 c-0.399,0-0.8-0.4-0.8-0.8S610.2,254.8,610.6,254.8z" display="inline"/><circle id="lowerLipBottomMid" cx="624.5" cy="264.9" r=".8" display="inline"/><circle id="upperLipBottomMid" cx="624.5" cy="255.3" r=".8" display="inline"/><circle id="lowerLipTopMid" cx="624.5" cy="258.4" r=".8" display="inline"/><circle id="rightUpperLipBottom1" cx="620.6" cy="254.8" r=".8" display="inline"/><circle id="rightLowerLipTop0" cx="620.6" cy="257.7" r=".8" display="inline"/><circle id="rightLowerLipBottom1" cx="620.4" cy="264.4" r=".8" display="inline"/><circle id="rightLowerLipBottom0" cx="613.4" cy="261.6" r=".8" display="inline"/><circle id="rightEye4" cx="606.2" cy="216.6" r=".8" display="inline"/><circle id="jawMid" cx="624.5" cy="290.7" r=".8" display="inline"/><circle id="rightJaw7" cx="609.5" cy="287.5" r=".8" display="inline"/><circle id="rightJaw6" cx="599.5" cy="280.8" r=".8" display="inline"/><circle id="rightJaw5" cx="587.9" cy="268.3" r=".8" display="inline"/><circle id="rightJaw4" cx="581.1" cy="248.3" r=".8" display="inline"/><circle id="rightJaw3" cx="580.3" cy="226.6" r=".8" display="inline"/><circle id="rightJaw2" cx="580.3" cy="217.1" r=".8" display="inline"/><circle id="rightJaw1" cx="581.1" cy="205.4" r=".8" display="inline"/><circle id="rightJaw0" cx="583.6" cy="196.1" r=".8" display="inline"/><circle id="topMid" cx="624.7" cy="170" r=".8" display="inline"/><circle id="leftTop0" cx="644.4" cy="172.5" r=".8" display="inline"/><circle id="leftTop1" cx="657" cy="182" r=".8" display="inline"/><circle id="leftEye0" cx="654.3" cy="215.1" r=".8" display="inline"/><circle id="leftBrow1" cx="656.2" cy="203.6" r=".8" display="inline"/><circle id="leftBrow4" cx="632.6" cy="205.7" r=".8" display="inline"/><circle id="leftBrow3" cx="642.6" cy="202.5" r=".8" display="inline"/><circle id="leftEye1" cx="649.1" cy="211.4" r=".8" display="inline"/><circle id="leftBrow0" cx="660.2" cy="206.5" r=".8" display="inline"/><circle id="leftBrow2" cx="649.9" cy="202.1" r=".8" display="inline"/><circle id="leftEye5" cx="649.1" cy="217.4" r=".8" display="inline"/><circle id="leftEye2" cx="642.8" cy="211.4" r=".8" display="inline"/><circle id="leftEye3" cx="637.6" cy="215.6" r=".8" display="inline"/><circle id="leftNose0" cx="634.1" cy="233.2" r=".8" display="inline"/><circle id="leftMouthCorner" cx="642" cy="255.3" r=".8" display="inline"/><circle id="leftNose1" cx="629.3" cy="233.2" r=".8" display="inline"/><circle id="leftUpperLipTop0" cx="635.1" cy="251.9" r=".8" display="inline"/><circle id="leftUpperLipTop1" cx="628.7" cy="250.8" r=".8" display="inline"/><path id="leftMiddleLip" d="M638.4,254.8c0.399,0,0.8,0.4,0.8,0.8s-0.4,0.8-0.8,0.8c-0.4,0-0.801-0.4-0.801-0.8 S638,254.8,638.4,254.8z" display="inline"/><circle id="leftUpperLipBottom1" cx="628.5" cy="254.8" r=".8" display="inline"/><circle id="leftLowerLipTop0" cx="628.5" cy="257.7" r=".8" display="inline"/><circle id="leftLowerLipBottom1" cx="628.7" cy="264.4" r=".8" display="inline"/><circle id="leftLowerLipBottom0" cx="635.6" cy="261.6" r=".8" display="inline"/><circle id="leftEye4" cx="642.8" cy="216.6" r=".8" display="inline"/><circle id="leftJaw7" cx="639.3" cy="287.9" r=".8" display="inline"/><circle id="leftJaw6" cx="649.3" cy="281.2" r=".8" display="inline"/><circle id="leftJaw5" cx="660.9" cy="268.6" r=".8" display="inline"/><circle id="leftJaw4" cx="667.7" cy="248.6" r=".8" display="inline"/><circle id="leftJaw3" cx="668.5" cy="227" r=".8" display="inline"/><circle id="leftJaw2" cx="668.5" cy="217.4" r=".8" display="inline"/><circle id="leftJaw1" cx="667.7" cy="205.7" r=".8" display="inline"/><circle id="leftJaw0" cx="665.2" cy="196.5" r=".8" display="inline"/><circle id="rightTop0" cx="604.8" cy="172.5" r=".8" display="inline"/><circle id="rightTop1" cx="592.2" cy="182" r=".8" display="inline"/><circle id="leftShoulder" cx="731.8" cy="349.2" r="8.2" display="inline"/></g><path fill="#FFD88D" d="M682.905,972.972c3.317,0.774,6.384,2.119,9.605,3.683c2.635,1.277,5.912,2.588,8.143,4.369 c1.921,1.537,3.264,3.355,4.67,5.257c1.25,1.68,2.19,3.51,2.885,5.463c0.608,1.706,0.51,3.33,0.031,4.848 c-0.521,1.669-1.74,3.181-3.385,4.565c-1.725,1.447-3.452,2.952-6.184,4.013c-2.716,1.054-6.112,1.871-9.599,2.47 c-3.325,0.57-7.064,0.959-10.891,1.052c-3.534,0.084-7.162-0.495-10.966-0.871c-4.53-0.446-8.801-0.704-11.955-1.651 c-3.611-1.085-5.902-2.72-7.951-4.285c-2.036-1.56-4.2-3.232-4.935-5.082c-0.698-1.753,0.199-3.634,0.449-5.486 c0.245-1.808,0.533-3.64,1.479-5.395c0.981-1.814,1.951-3.631,3.467-5.231c1.724-1.818,3.914-3.43,6.03-4.751 c2.138-1.331,5.085-2.306,8.199-3.004c3.207-0.722,6.777-0.924,10.402-0.909C675.928,972.041,679.572,972.195,682.905,972.972z"/><path fill="#FFD88D" d="M578.905,972.972c3.317,0.774,6.384,2.119,9.605,3.683c2.635,1.277,5.912,2.588,8.143,4.369 c1.921,1.537,3.264,3.355,4.67,5.257c1.25,1.68,2.19,3.51,2.885,5.463c0.608,1.706,0.51,3.33,0.031,4.848 c-0.521,1.669-1.74,3.181-3.385,4.565c-1.725,1.447-3.452,2.952-6.184,4.013c-2.716,1.054-6.112,1.871-9.599,2.47 c-3.325,0.57-7.064,0.959-10.891,1.052c-3.534,0.084-7.162-0.495-10.966-0.871c-4.53-0.446-8.801-0.704-11.955-1.651 c-3.611-1.085-5.902-2.72-7.951-4.285c-2.036-1.56-4.2-3.232-4.935-5.082c-0.698-1.753,0.199-3.634,0.449-5.486 c0.245-1.808,0.533-3.64,1.479-5.395c0.981-1.814,1.951-3.631,3.467-5.231c1.724-1.818,3.914-3.43,6.03-4.751 c2.138-1.331,5.085-2.306,8.199-3.004c3.207-0.722,6.777-0.924,10.402-0.909C571.928,972.041,575.572,972.195,578.905,972.972z"/><g><path fill="#EA4C4C" d="M5857.973-324.951c-0.879-2.051-0.293-80.991,0.879-175.488l2.056-171.675l55.757-1.758 c30.815-1.177,105.054-2.056,165.22-2.349l109.17-0.293v-257.954c0-230.654,0.586-258.535,4.688-262.642 c4.111-4.111,24.648-4.697,184.297-4.697c147.9,0,180.771,0.586,183.418,4.111c2.344,2.935,2.93,120.02,2.637,439.307 l-0.879,435.493l-83.926,0.879c-65.742,0.591-84.531,0-85.703-2.935c-0.586-2.051-4.395-41.084-8.203-86.86l-6.758-82.759 l-45.781,0.586l-45.488,0.884l-4.395,82.168c-2.646,45.19-5.586,83.931-6.758,85.981c-2.93,4.111-129.707,5.283-132.344,0.879 c-1.465-2.051-10.566-144.38-10.566-163.75c0-6.748-0.293-6.748-46.953-6.748h-46.953v8.218 c0,13.794-11.738,157.295-13.203,161.401c-0.879,2.642-20.84,3.525-85.107,3.525S5858.852-322.31,5857.973-324.951z M6379.453-829.404c34.336-29.346,64.854-55.757,67.793-58.989c3.809-4.692,4.98-11.147,4.98-28.755v-22.891l-66.611-54.585 c-84.229-68.667-88.916-69.844-88.916-19.077v24.063l11.152,10.566c6.162,5.869,24.648,22.598,41.074,36.978 c16.445,14.673,29.941,27.29,29.941,28.169c0,1.177-18.496,18.784-41.094,39.326l-41.074,37.271v25.825 c0,23.477,0.586,26.411,6.455,30.518c3.525,2.642,8.213,4.697,10.264,4.697C6315.478-776.289,6345.117-800.356,6379.453-829.404z" transform="translate(0.000000,366.000000) scale(0.100000,-0.100000)"/><path fill="#EA4C4C" d="M6085.117-775.703c-2.646-1.172-33.457-26.411-68.379-56.343c-71.606-61.04-72.192-61.919-67.5-95.376 l2.642-17.314l61.626-50.771c34.043-28.169,65.146-52.822,69.551-55.166c9.688-5.283,21.719-3.228,25.83,4.399 c1.758,2.935,2.93,17.319,2.93,31.694c0,30.522,3.516,24.941-46.367,69.258c-18.193,16.143-32.871,30.225-32.871,31.396 c0,0.884,16.738,16.729,36.982,35.215c20.244,18.198,38.154,35.513,39.619,38.154c1.465,2.93,2.637,16.436,2.637,30.225 c0,21.426-0.879,26.118-5.869,31.108C6100.078-773.354,6093.623-772.183,6085.117-775.703z" transform="translate(0.000000,366.000000) scale(0.100000,-0.100000)"/></g></g></switch></svg>